<?xml version="1.0" encoding="UTF-8" standalone="no"?>
<!-- Created with Inkscape (http://www.inkscape.org/) -->

<svg
   width="210mm"
   height="297mm"
   viewBox="0 0 210 297"
   version="1.1"
   id="svg1"
   xml:space="preserve"
   inkscape:version="1.3 (1:1.3+202307231459+0e150ed6c4)"
   sodipodi:docname="iicba.svg"
   xmlns:inkscape="http://www.inkscape.org/namespaces/inkscape"
   xmlns:sodipodi="http://sodipodi.sourceforge.net/DTD/sodipodi-0.dtd"
   xmlns="http://www.w3.org/2000/svg"
   xmlns:svg="http://www.w3.org/2000/svg"><sodipodi:namedview
     id="namedview1"
     pagecolor="#ffffff"
     bordercolor="#999999"
     borderopacity="1"
     inkscape:showpageshadow="2"
     inkscape:pageopacity="0"
     inkscape:pagecheckerboard="0"
     inkscape:deskcolor="#d1d1d1"
     inkscape:document-units="mm"
     inkscape:zoom="0.98901497"
     inkscape:cx="208.7936"
     inkscape:cy="131.44392"
     inkscape:window-width="1440"
     inkscape:window-height="836"
     inkscape:window-x="0"
     inkscape:window-y="27"
     inkscape:window-maximized="1"
     inkscape:current-layer="layer1" /><defs
     id="defs1" /><g
     inkscape:label="Capa 1"
     inkscape:groupmode="layer"
     id="layer1"><path
       style="fill:#000080"
       d="m 28.523156,68.730044 c -3.805199,-1.37142 -6.323616,-4.61043 -7.194362,-9.25287 -0.539826,-2.87813 0.270122,-7.10605 1.773287,-9.25656 3.04992,-4.36337 9.125242,-2.23418 9.125242,3.19809 0,2.73734 -1.213044,4.74096 -2.864571,4.7315 -1.239234,-0.007 -1.463433,-0.31554 -1.012991,-1.3936 0.316018,-0.75633 0.505167,-0.91649 0.946192,-0.80116 0.441257,0.11539 0.630275,-0.0451 0.947542,-0.8044 0.804356,-1.92509 0.17404,-3.85574 -1.551106,-4.75101 -2.986058,-1.54962 -5.769115,1.77421 -5.750467,6.86784 0.01339,3.65823 1.291472,6.34855 3.895509,8.19996 4.658347,3.31196 10.99752,1.544 14.219783,-3.96582 0.901506,-1.54151 1.08124,-1.71383 1.534511,-1.47125 0.818508,0.43806 0.831141,0.88753 0.06735,2.39618 -0.991122,1.95768 -4.080915,4.9725 -6.066128,5.91893 -2.130393,1.01565 -5.829113,1.19173 -8.069791,0.38417 z M 49.689823,43.602174 V 22.96467 h 0.661459 0.661458 v 20.637504 20.6375 h -0.661458 -0.661459 z m -37.009616,19.03198 c -5.1997992,-5.45168 -6.4944592,-15.43511 -2.919924,-22.51623 1.620625,-3.21043 4.293546,-5.07857 7.253498,-5.06954 2.883945,0.009 4.964794,1.33845 6.282061,4.0142 0.755432,1.53449 0.861689,2.01203 0.861689,3.87256 0,3.08845 -0.947946,5.1363 -2.831131,6.11612 -1.579825,0.82199 -3.7434,0.13205 -4.564357,-1.4555 -0.431423,-0.83428 -0.546144,-2.84001 -0.194136,-3.3942 0.359091,-0.56535 1.371916,0.36293 1.371916,1.25739 0,0.94976 0.905375,1.84738 1.863338,1.84738 0.825923,0 1.989774,-0.99069 2.39702,-2.04038 0.15742,-0.40576 0.284252,-1.46902 0.281849,-2.3628 -0.0091,-3.3813 -2.239899,-5.66026 -5.525897,-5.64517 -3.354031,0.0154 -5.945213,2.88822 -7.125086,7.89951 -0.615351,2.61358 -0.366996,7.48083 0.511054,10.0156 0.847448,2.44643 1.697902,3.88551 3.391015,5.73805 1.301401,1.42394 1.343621,1.51717 1.029976,2.27437 -0.179878,0.43427 -0.434344,0.78957 -0.56548,0.78957 -0.131135,0 -0.813968,-0.60342 -1.517405,-1.34093 z m 45.476283,-1.97056 v -3.04691 l 0.7276,0.0395 c 0.40019,0.0217 0.93067,-0.0466 1.17886,-0.15188 0.30614,-0.12983 0.66777,0.0251 1.12448,0.48186 1.5362,1.5362 0.28203,4.75407 -1.57514,4.0414 -0.30649,-0.11761 -0.39747,0.0575 -0.39747,0.76522 0,0.74135 -0.1017,0.91774 -0.529163,0.91774 -0.498533,0 -0.529167,-0.17639 -0.529167,-3.04691 z m 2.32833,0.0836 c 0.45236,-0.45236 0.39634,-1.78552 -0.0827,-1.96936 -0.54485,-0.20908 -1.18725,0.37297 -1.18725,1.07571 0,0.54081 0.43932,1.21115 0.79375,1.21115 0.0873,0 0.30162,-0.14288 0.47625,-0.3175 z m -6.803374,-0.41011 c 1.15024,-4.01798 1.210862,-4.16531 1.747132,-4.246 0.454772,-0.0684 0.634214,0.3043 1.361284,2.8276 0.460604,1.59853 0.837462,2.97345 0.837462,3.05538 0,0.0819 -0.225218,0.14896 -0.500484,0.14896 -0.31319,0 -0.562611,-0.24753 -0.666499,-0.66146 -0.131019,-0.52202 -0.333658,-0.66145 -0.961274,-0.66145 -0.604823,0 -0.855479,0.15839 -1.046743,0.66145 -0.149445,0.39307 -0.460583,0.66146 -0.766815,0.66146 -0.510314,0 -0.510353,-0.0174 -0.0041,-1.78594 z m 2.093794,-1.24115 c 0,-0.61178 -0.456032,-0.72073 -0.606607,-0.14493 -0.08917,0.34099 -0.0066,0.52619 0.234502,0.52619 0.204658,0 0.372105,-0.17157 0.372105,-0.38126 z m 6.67233,-0.0786 c 0.0651,-2.71261 0.13315,-3.11689 0.53757,-3.1944 0.4203,-0.0806 0.46302,0.20595 0.46302,3.10566 0,3.03464 -0.0269,3.1944 -0.53757,3.1944 -0.51406,0 -0.5343,-0.13576 -0.46302,-3.10566 z m 1.79434,0.8567 c 0,-1.82269 0.0752,-2.24896 0.39687,-2.24896 0.32165,0 0.39688,0.42627 0.39688,2.24896 0,1.82268 -0.0752,2.24896 -0.39688,2.24896 -0.32165,0 -0.39687,-0.42628 -0.39687,-2.24896 z m 2.11666,1.71979 c -0.69911,-0.69911 -0.72196,-2.6137 -0.0412,-3.45437 0.58356,-0.72065 1.97201,-0.81366 2.61079,-0.17488 0.35819,0.35819 0.37087,0.49617 0.078,0.84906 -0.24261,0.29233 -0.43416,0.33691 -0.6255,0.14557 -0.46788,-0.46788 -1.23434,-0.30554 -1.46192,0.30965 -0.43844,1.18522 0.29605,2.06421 1.28334,1.53583 0.71925,-0.38493 1.23748,0.31623 0.66031,0.8934 -0.58589,0.5859 -1.86696,0.53255 -2.50377,-0.10426 z m 4.14877,0.0508 c -0.61841,-0.68632 -0.79199,-1.77632 -0.44857,-2.81689 0.38868,-1.17769 0.92281,-1.47107 2.3337,-1.28183 l 1.10985,0.14886 v 2.18872 2.18873 l -1.29581,0.01 c -0.89163,0.007 -1.42162,-0.1296 -1.69917,-0.43763 z m 1.65879,-0.96083 c 0.48916,-0.58939 0.24633,-1.86808 -0.35476,-1.86808 -0.76234,0 -1.12014,0.74975 -0.7478,1.56695 0.35201,0.77258 0.6449,0.85257 1.10256,0.30113 z m 2.53119,0.83599 c -0.22069,-0.31507 -0.40125,-1.13303 -0.40125,-1.8177 0,-1.03232 0.12002,-1.33925 0.70304,-1.79784 0.40125,-0.31563 0.90474,-0.48899 1.17295,-0.40386 0.3758,0.11927 0.4867,-0.0251 0.55374,-0.7208 0.0555,-0.57614 0.2402,-0.89958 0.54684,-0.95767 0.42008,-0.0796 0.46302,0.20617 0.46302,3.08129 v 3.16901 l -1.31855,0.0102 c -1.05907,0.008 -1.39751,-0.10252 -1.71979,-0.56264 z m 1.6689,-0.68535 c 0.51853,-0.32875 0.29586,-1.99222 -0.2813,-2.10154 -0.65907,-0.12484 -1.14602,1.02623 -0.74842,1.76914 0.32854,0.6139 0.49896,0.66891 1.02972,0.3324 z m 2.57507,0.70053 c -0.66711,-0.95242 -0.53451,-2.75297 0.26134,-3.54882 0.39711,-0.3971 0.84005,-0.60921 1.07998,-0.51714 0.22371,0.0859 0.69466,0.15608 1.04656,0.15608 0.62652,0 0.63982,0.0467 0.63982,2.24896 v 2.24896 h -1.30791 c -1.05163,0 -1.38862,-0.11523 -1.71979,-0.58804 z m 2.062,-1.32512 c 0.18001,-0.68834 -0.24382,-1.52642 -0.77193,-1.52642 -0.46183,0 -0.904,1.01102 -0.6943,1.5875 0.33287,0.91503 1.22064,0.87805 1.46623,-0.0611 z m 1.85513,1.51629 c -0.0838,-0.21829 -0.0786,-0.58888 0.0114,-0.82355 0.13383,-0.34875 0.23681,-0.36603 0.56387,-0.0946 0.72865,0.60472 0.75864,1.3e-4 0.0373,-0.75275 -0.79977,-0.83478 -0.90636,-1.66515 -0.29254,-2.27897 0.51785,-0.51785 0.6443,-0.5174 1.39005,0.005 0.48604,0.34044 0.53967,0.4942 0.28106,0.80579 -0.17577,0.2118 -0.4791,0.32387 -0.67407,0.24905 -0.56358,-0.21626 -0.41256,0.1224 0.30698,0.68839 0.70397,0.55374 0.83382,1.25294 0.38756,2.08679 -0.33397,0.62403 -1.78451,0.70688 -2.01168,0.1149 z M 64.073,56.963634 c -0.21227,-0.55317 0.0767,-1.19063 0.53965,-1.19063 0.4315,0 0.81327,0.90551 0.55676,1.32055 -0.24786,0.40105 -0.92337,0.321 -1.09641,-0.12992 z m 15.51474,-1.29254 c 0,-0.056 0.16454,-0.49324 0.36564,-0.97153 0.33033,-0.78561 0.30478,-1.04858 -0.26458,-2.72255 -0.75661,-2.22454 -0.76079,-2.28943 -0.14751,-2.28943 0.34408,0 0.59608,0.36095 0.87744,1.25678 l 0.39474,1.25677 0.40005,-1.19063 c 0.29991,-0.89261 0.55318,-1.21301 1.01187,-1.28005 0.50306,-0.0735 0.57667,-0.003 0.41403,0.39687 -0.10879,0.26747 -0.52954,1.43881 -0.93501,2.60297 -1.05248,3.02184 -1.06356,3.04271 -1.61581,3.04271 -0.27547,0 -0.50086,-0.0459 -0.50086,-0.10191 z m -21.671093,-1.67695 c -0.89288,-0.72301 -1.056364,-2.61533 -0.307884,-3.56376 0.478291,-0.60606 0.7586,-0.71087 1.877887,-0.7022 l 1.31567,0.0102 v 2.22356 c 0,2.12845 -0.0255,2.22371 -0.59531,2.22717 -0.32742,0.002 -0.84027,0.0694 -1.13966,0.14982 -0.32237,0.0866 -0.791617,-0.054 -1.150703,-0.34478 z m 1.666743,-1.2855 c 0.29325,-0.76419 0.16653,-1.41177 -0.32803,-1.67646 -0.835568,-0.44718 -1.379941,0.52549 -0.938271,1.67646 0.08833,0.23018 0.373248,0.41852 0.633151,0.41852 0.2599,0 0.54482,-0.18834 0.63315,-0.41852 z m 2.15256,1.38282 c -0.75383,-0.55122 -0.34707,-1.29087 0.58192,-1.05818 l 0.73341,0.18371 -0.85989,-0.98017 c -0.93744,-1.06854 -0.99586,-1.27166 -0.58601,-2.03747 0.3257,-0.60858 1.37858,-0.67423 1.84278,-0.1149 0.46263,0.55744 -0.152,1.34885 -0.69657,0.89691 -0.19897,-0.16514 -0.36177,-0.21351 -0.36177,-0.10749 0,0.10601 0.29766,0.42689 0.66146,0.71306 0.84018,0.66088 0.9276,2.17293 0.14969,2.58925 -0.66871,0.35788 -0.87613,0.34589 -1.46502,-0.0847 z m 5.00747,-0.29082 c -1.36134,-1.36134 -0.57728,-4.11307 1.17195,-4.11307 0.93207,0 1.92603,0.96915 1.35556,1.32172 -0.20564,0.12709 -0.69594,0.16667 -1.08956,0.088 -0.54594,-0.10919 -0.78641,-0.011 -1.01396,0.41423 -0.56574,1.05711 0.65434,2.16334 1.47779,1.33989 0.19134,-0.19134 0.38722,-0.14154 0.63965,0.16262 0.31609,0.38087 0.28299,0.50389 -0.25219,0.93726 -0.83042,0.67243 -1.51098,0.62766 -2.28924,-0.1506 z m 4.3462,0.39025 c -1.09889,-0.66049 -1.28051,-3.16096 -0.2941,-4.0492 0.27947,-0.25166 0.94749,-0.41184 1.71462,-0.41115 l 1.25677,10e-4 v 2.22691 c 0,2.13192 -0.0254,2.22706 -0.59531,2.23052 -0.32743,0.002 -0.83344,0.0611 -1.12448,0.13142 -0.29105,0.0703 -0.72192,0.012 -0.9575,-0.12964 z m 1.56632,-2.01448 c 0.0996,-1.01746 -0.53433,-1.66691 -1.13799,-1.16592 -0.48012,0.39846 -0.51826,1.36028 -0.0717,1.80689 0.5422,0.5422 1.12404,0.2339 1.20964,-0.64097 z m 2.05643,1.85841 c -0.33466,-0.33466 -0.3554,-0.52707 -0.10686,-0.99148 0.19231,-0.35932 0.34981,-0.452 0.4184,-0.24621 0.0605,0.18152 0.30096,0.33003 0.53434,0.33003 0.32125,0 0.25162,-0.18027 -0.28663,-0.74209 -1.36532,-1.42508 -0.45748,-3.45084 1.10329,-2.46189 0.53313,0.3378 0.13904,1.37384 -0.43873,1.15339 -0.30787,-0.11747 -0.22025,0.10157 0.27812,0.69526 0.86628,1.03196 0.90426,1.44326 0.19844,2.14908 -0.63688,0.63687 -1.14347,0.67081 -1.70037,0.11391 z m -21.053797,-2.89204 c 0,-3.28481 0.02015,-3.32373 1.441236,-2.78344 0.865849,0.3292 1.359501,1.33816 0.991314,2.02613 -0.193921,0.36234 -0.164956,0.6408 0.105071,1.01008 0.486955,0.66595 0.472661,1.47129 -0.03908,2.2019 -0.307216,0.43861 -0.676996,0.58804 -1.455208,0.58804 h -1.043331 z m 1.805338,1.2787 c -0.128733,-0.66378 -0.747004,-0.75492 -0.747004,-0.11012 0,0.325 0.170838,0.55121 0.416275,0.55121 0.246391,0 0.381364,-0.18001 0.330729,-0.44109 z m -0.429504,-2.78682 c -0.246945,-0.24695 -0.3175,-0.17639 -0.3175,0.3175 0,0.49389 0.07055,0.56444 0.3175,0.3175 0.246944,-0.24695 0.246944,-0.38806 0,-0.635 z m 9.207503,2.44978 c 0,-1.15558 0.11662,-2.17313 0.25916,-2.26123 0.16338,-0.10097 0.14085,-0.34963 -0.061,-0.67279 -0.25974,-0.41591 -0.24195,-0.59082 0.0943,-0.92706 0.37256,-0.37256 0.44854,-0.37333 0.75203,-0.008 0.19015,0.22911 0.25526,0.61049 0.14908,0.87318 -0.10368,0.25651 -0.16937,1.50818 -0.14596,2.78149 0.04,2.17503 0.01,2.31511 -0.50254,2.31511 -0.50464,0 -0.54509,-0.15593 -0.54509,-2.10106 z m -28.377103,-0.6577 c -2.988963,-1.06665 -4.708852,-3.74592 -4.768024,-7.42771 -0.05151,-3.2052 1.228656,-5.67345 3.359317,-6.47699 1.404111,-0.52954 3.288483,0.22768 4.002455,1.60835 0.501829,0.97043 0.522062,3.67802 0.02748,3.67802 -0.554521,0 -1.231633,-0.89803 -1.231633,-1.63348 0,-1.28244 -1.615491,-1.96996 -2.950304,-1.25559 -0.8128,0.43499 -1.535196,2.29116 -1.541801,3.9616 -0.01302,3.2921 2.455921,5.81453 5.680984,5.80405 1.20465,-0.004 3.336454,-1.11265 4.342545,-2.25852 1.905037,-2.16972 3.001685,-5.7429 3.000806,-9.77744 -10e-4,-4.752195 -1.514887,-8.937254 -4.243999,-11.732581 l -1.428618,-1.46328 0.451709,-0.942694 0.45171,-0.942694 1.705047,1.831905 c 3.248724,3.490433 4.683757,7.540369 4.694703,13.249344 0.0073,3.82935 -0.510045,6.2544 -1.937832,9.08283 -2.032223,4.02581 -6.025406,5.97572 -9.614549,4.69488 z m 22.556267,-2.39436 c 0,-0.60035 0.884166,-1.72606 1.355696,-1.72606 h 0.54835 l -0.5427,0.8599 c -0.4775,0.7566 -1.361346,1.31894 -1.361346,0.86616 z m -4.253359,-3.20258 c -0.539048,-0.57379 -0.641433,-0.94945 -0.641433,-2.35347 0,-1.78738 0.439911,-2.60879 1.643746,-3.06923 1.253657,-0.47949 3.214827,0.86907 2.33081,1.60274 -0.298182,0.24747 -0.508945,0.22498 -0.979353,-0.10451 -0.768908,-0.53857 -0.901517,-0.52915 -1.539995,0.10933 -0.575114,0.57511 -0.696279,1.8392 -0.255274,2.66322 0.310942,0.581 1.551637,0.69708 2.056331,0.19239 0.249464,-0.24947 0.412072,-0.22671 0.742723,0.10394 0.388056,0.38806 0.376874,0.46979 -0.134182,0.98085 -0.818695,0.81869 -2.394086,0.75747 -3.223373,-0.12526 z m 4.253359,-1.56619 c 0,-2.07256 0.0415,-2.24895 0.529166,-2.24895 0.48766,0 0.52917,0.17639 0.52917,2.24895 0,2.07257 -0.0415,2.24896 -0.52917,2.24896 -0.487663,0 -0.529166,-0.17639 -0.529166,-2.24896 z m 2.135866,1.55182 c -0.64313,-0.81761 -0.70367,-1.93924 -0.16128,-2.9881 0.45416,-0.87825 0.99428,-1.13908 1.89213,-0.91373 0.69185,0.17364 1.42495,1.30785 1.42495,2.20458 0,0.47438 -0.1657,0.54231 -1.32292,0.54231 -0.7276,0 -1.32291,0.10632 -1.32291,0.23628 0,0.39182 0.79978,0.57286 1.3143,0.2975 0.71925,-0.38493 1.23747,0.31623 0.66031,0.8934 -0.66398,0.66397 -1.85041,0.53398 -2.48458,-0.27224 z m 1.96518,-2.47786 c -0.0899,-0.14552 -0.3876,-0.26458 -0.66146,-0.26458 -0.27387,0 -0.57152,0.11906 -0.66146,0.26458 -0.0957,0.15478 0.17885,0.26459 0.66146,0.26459 0.48261,0 0.75712,-0.10981 0.66146,-0.26459 z m 1.71979,0.90711 c 0,-2.19277 0.0197,-2.26596 0.59531,-2.20962 0.32742,0.032 0.80811,-0.0334 1.06819,-0.14544 0.31051,-0.13378 0.65118,-0.0424 0.99219,0.26625 0.42623,0.38573 0.51931,0.81828 0.51931,2.41334 0,1.76697 -0.048,1.94336 -0.52917,1.94336 -0.47489,0 -0.52917,-0.17639 -0.52917,-1.71979 0,-1.29361 -0.0913,-1.71979 -0.36856,-1.71979 -0.49947,0 -0.68977,0.58992 -0.68977,2.13831 0,1.12488 -0.0717,1.30127 -0.52917,1.30127 -0.48801,0 -0.52916,-0.17639 -0.52916,-2.26789 z m 4.67981,1.93716 c -1.06769,-0.78748 -0.97883,-3.23514 0.14605,-4.02304 0.77098,-0.54001 1.33346,-0.51566 2.08156,0.0901 0.53518,0.43337 0.56828,0.55639 0.25219,0.93726 -0.25243,0.30416 -0.44831,0.35396 -0.63965,0.16262 -0.44697,-0.44697 -1.18776,-0.31676 -1.49823,0.26336 -0.55269,1.03272 0.4022,2.23628 1.22951,1.54967 0.27372,-0.22716 0.46288,-0.21893 0.76689,0.0334 0.36025,0.29898 0.35585,0.38763 -0.041,0.82615 -0.51093,0.56458 -1.64229,0.64362 -2.29731,0.1605 z m 3.52227,-1.91823 c 0,-1.82268 0.0752,-2.24895 0.39688,-2.24895 0.32165,0 0.39687,0.42627 0.39687,2.24895 0,1.82269 -0.0752,2.24896 -0.39687,2.24896 -0.32165,0 -0.39688,-0.42627 -0.39688,-2.24896 z m 1.98874,1.64574 c -0.22068,-0.31507 -0.40124,-1.12092 -0.40124,-1.79078 0,-1.69209 0.74557,-2.39582 2.31511,-2.18516 l 1.12447,0.15092 v 2.18872 2.18873 l -1.31854,0.0102 c -1.05907,0.008 -1.39752,-0.10252 -1.7198,-0.56264 z m 1.98001,-1.68235 c 0,-0.5967 -0.14856,-0.96304 -0.43513,-1.07301 -0.57517,-0.22072 -1.2067,0.65087 -0.98566,1.36033 0.39172,1.25727 1.42079,1.04917 1.42079,-0.28732 z m 1.91738,1.98046 c -0.21477,-0.21478 -0.22497,-0.45486 -0.0345,-0.81084 0.21788,-0.4071 0.3457,-0.44344 0.65547,-0.18634 0.72067,0.5981 0.74648,-0.0364 0.0286,-0.7021 -0.80043,-0.7422 -0.92485,-1.71657 -0.29909,-2.34233 0.51786,-0.51786 0.6443,-0.51741 1.39006,0.005 0.4813,0.33711 0.53815,0.49602 0.2861,0.79972 -0.19573,0.23584 -0.52533,0.31256 -0.87251,0.2031 -0.43642,-0.1376 -0.37064,-5e-4 0.30193,0.62934 0.90374,0.84632 1.03861,1.35216 0.58601,2.19785 -0.30697,0.57357 -1.54941,0.6993 -2.04206,0.20666 z m -19.862715,-5.16176 c 0.109107,-0.953 0.879715,-1.03445 0.879715,-0.093 0,0.42643 -0.16985,0.69054 -0.48284,0.75082 -0.390413,0.0752 -0.466381,-0.0507 -0.396875,-0.65784 z m 13.807685,0.30751 c -0.21227,-0.55317 0.0767,-1.19063 0.53964,-1.19063 0.4315,0 0.81328,0.90551 0.55677,1.32055 -0.24786,0.40105 -0.92338,0.321 -1.09641,-0.12992 z m 2.22267,-1.21 c -0.25288,-0.14733 -0.58812,-0.50768 -0.74499,-0.80079 -0.26939,-0.50337 -0.21612,-0.52841 0.96115,-0.45169 0.72591,0.0473 1.28855,-0.0382 1.34741,-0.20472 0.0622,-0.1761 -0.18348,-0.24419 -0.63961,-0.17724 -1.06257,0.15595 -1.7871,-0.72894 -1.7871,-2.18265 0,-1.61737 0.62218,-2.221007 2.27606,-2.208196 l 1.29581,0.01004 v 2.500176 c 0,2.30172 -0.0515,2.55171 -0.64943,3.1496 -0.69067,0.69067 -1.31189,0.80092 -2.0593,0.36547 z m 1.3329,-2.94396 c 0.4294,-0.4294 0.40133,-1.40022 -0.0513,-1.7759 -0.28478,-0.23635 -0.46569,-0.20927 -0.79375,0.11879 -0.49673,0.49673 -0.52444,0.76509 -0.15102,1.46284 0.31681,0.59196 0.55246,0.63792 0.99611,0.19427 z m -48.957434,1.64155 c -2.18134,-0.65681 -3.575392,-2.41983 -3.822769,-4.834547 -0.281015,-2.743078 1.069491,-5.308948 2.794281,-5.308948 1.193299,0 1.510775,0.397488 1.103262,1.381312 -0.229851,0.554909 -0.53957,0.817805 -1.030384,0.874616 -0.552974,0.064 -0.772958,0.29932 -1.037617,1.109938 -0.479154,1.467585 -0.163053,2.769149 0.922866,3.799929 0.732333,0.69516 1.122885,0.8599 2.038544,0.8599 2.272258,0 3.865866,-1.93658 4.438794,-5.394088 1.037629,-6.261889 -3.194181,-11.582562 -9.23934,-11.616663 -1.679315,-0.0095 -2.148468,0.106874 -3.878275,0.961791 -2.172114,1.073517 -4.078848,2.916829 -5.196533,5.023687 -0.722766,1.362427 -1.010262,1.485 -1.698731,0.72425 -0.443581,-0.490152 -0.427336,-0.578063 0.390295,-2.112096 1.092983,-2.050647 3.479132,-4.457098 5.45464,-5.501051 6.326994,-3.343485 13.638812,-0.01641 15.482094,7.044772 0.815455,3.12382 0.470511,7.246438 -0.817575,9.771298 -0.687084,1.34679 -2.401124,2.85178 -3.639582,3.19568 -1.148899,0.31903 -1.268042,0.3201 -2.26397,0.0202 z m 36.695194,-0.65057 c -0.48921,-0.48921 -0.64943,-0.9316 -0.64943,-1.79321 0,-1.54355 0.5755,-2.319854 1.71979,-2.319854 1.04039,0 1.71979,0.754924 1.71979,1.910954 0,0.69656 -0.0632,0.73488 -1.21267,0.73488 -0.85391,0 -1.1793,0.0979 -1.09988,0.33073 0.062,0.1819 0.50818,0.33073 0.99144,0.33073 1.07391,0 1.29169,0.46674 0.48231,1.03365 -0.82101,0.57506 -1.1917,0.53177 -1.95135,-0.22788 z m 1.59953,-2.79015 c -0.0899,-0.14552 -0.32806,-0.26458 -0.52917,-0.26458 -0.2011,0 -0.43923,0.11906 -0.52916,0.26458 -0.0931,0.15066 0.13474,0.26459 0.52916,0.26459 0.39442,0 0.62228,-0.11393 0.52917,-0.26459 z m 2.12425,3.08097 c -0.75383,-0.55121 -0.34707,-1.29087 0.58192,-1.05818 l 0.73341,0.18371 -0.85989,-0.98016 c -0.9827,-1.12014 -0.93892,-0.98406 -0.60186,-1.87057 0.29524,-0.776546 1.31918,-0.931798 1.85863,-0.28181 0.46263,0.55744 -0.152,1.34886 -0.69657,0.89691 -0.19897,-0.16513 -0.36177,-0.2135 -0.36177,-0.10749 0,0.10602 0.29766,0.42689 0.66146,0.71306 0.84018,0.66089 0.9276,2.17293 0.14969,2.58925 -0.66871,0.35789 -0.87613,0.34589 -1.46502,-0.0847 z m 11.26394,-0.27439 c -0.7664,-0.8158 -0.87141,-2.41793 -0.2233,-3.40708 0.39131,-0.597206 0.63556,-0.690763 1.78026,-0.681896 l 1.32672,0.01028 v 2.223566 c 0,2.12845 -0.0255,2.22371 -0.59531,2.22717 -0.32742,0.002 -0.83607,0.0683 -1.13033,0.14738 -0.35712,0.096 -0.74217,-0.0767 -1.15804,-0.51941 z m 1.77832,-1.56807 c 0.084,-0.73016 -0.31958,-1.50309 -0.78479,-1.50309 -0.49025,0 -0.82519,1.22782 -0.50046,1.83458 0.42288,0.79017 1.17867,0.59524 1.28525,-0.33149 z m 2.54855,1.55164 c -1.38007,-1.38006 -0.53822,-4.113064 1.26695,-4.113064 0.66273,0 1.5232,0.592544 1.5232,1.048924 0,0.38598 -0.8498,0.55686 -1.22416,0.24616 -0.52917,-0.43917 -1.15709,0.17235 -1.15709,1.12687 0,0.88185 0.61761,1.25492 1.3354,0.80665 0.36662,-0.22896 0.54826,-0.20206 0.81627,0.12086 0.29112,0.35079 0.24895,0.4929 -0.27134,0.9142 -0.83042,0.67243 -1.51098,0.62766 -2.28923,-0.1506 z m 5.82083,0 c -1.31855,-1.31854 -0.58432,-4.113064 1.080668,-4.113064 1.68051,0 2.3962,2.776924 1.06005,4.113064 -0.35719,0.35719 -0.83885,0.64944 -1.07036,0.64944 -0.231508,0 -0.713168,-0.29225 -1.070358,-0.64944 z m 1.708928,-1.15987 c 0.48241,-0.90141 -0.22654,-2.15382 -0.946448,-1.67194 -0.45523,0.30471 -0.62533,1.12139 -0.34332,1.64833 0.34493,0.64451 0.951528,0.65562 1.289768,0.0236 z m 8.31188,1.17593 c -0.88296,-0.7595 -1.00624,-2.30362 -0.27323,-3.42233 0.46088,-0.703397 1.53117,-0.949047 2.197232,-0.504305 0.43199,0.288445 0.89951,1.274295 0.89951,1.896785 0,0.47902 -0.16245,0.54656 -1.31462,0.54656 -1.091202,0 -1.287262,0.0713 -1.153672,0.41939 0.12109,0.31556 0.37594,0.37905 1.029392,0.25646 1.12118,-0.21033 1.47053,0.2965 0.65793,0.9545 -0.790652,0.64023 -1.158012,0.61378 -2.042542,-0.14706 z m 1.632882,-2.80621 c -0.0899,-0.14552 -0.32806,-0.26458 -0.529162,-0.26458 -0.20111,0 -0.43923,0.11906 -0.52917,0.26458 -0.0931,0.15066 0.13475,0.26459 0.52917,0.26459 0.394412,0 0.622272,-0.11393 0.529162,-0.26459 z m -46.906059,0.20161 c 0.06508,-2.586479 0.135062,-2.984941 0.537832,-3.062111 0.41941,-0.08036 0.463021,0.199694 0.463021,2.973391 0,2.90217 -0.02809,3.06211 -0.537833,3.06211 -0.513253,0 -0.534413,-0.13588 -0.46302,-2.97339 z m 2.059186,0.75563 V 34.13955 l 1.116386,-0.01541 c 1.604063,-0.02214 1.794031,0.242474 1.794031,2.498964 0,1.5587 -0.07996,1.95198 -0.396875,1.95198 -0.285538,0 -0.396875,-0.29207 -0.396875,-1.04111 0,-0.57261 -0.127957,-1.37628 -0.284349,-1.78594 -0.274255,-0.71838 -0.297736,-0.72659 -0.661459,-0.23123 -0.20741,0.28247 -0.377109,1.08614 -0.377109,1.78593 0,0.95459 -0.09912,1.27235 -0.396875,1.27235 -0.321213,0 -0.396875,-0.42281 -0.396875,-2.21777 z m 4.253103,0.30836 c -0.34058,-1.05988 -0.67569,-2.07588 -0.74469,-2.25778 -0.0747,-0.196961 0.0911,-0.330734 0.40998,-0.330734 0.39264,0 0.63893,0.299864 0.92355,1.124484 0.2527,0.73215 0.44228,0.98601 0.54336,0.7276 0.0854,-0.21828 0.2749,-0.7243 0.42113,-1.12448 0.26845,-0.73463 1.07273,-1.021234 1.07273,-0.38227 0,0.81609 -1.27245,4.02678 -1.62302,4.09526 -0.26583,0.0519 -0.57414,-0.51735 -1.00304,-1.85208 z m 10.24194,-0.14112 c -0.18683,-2.887994 -0.012,-4.034894 0.61515,-4.034894 0.37942,0 0.50022,0.1917 0.50022,0.79375 0,0.436563 0.11907,0.79375 0.26459,0.79375 0.14552,0 0.26458,0.297654 0.26458,0.661454 0,0.36381 -0.11906,0.66146 -0.26458,0.66146 -0.14699,0 -0.26459,0.70556 -0.26459,1.5875 0,1.3704 -0.0672,1.5875 -0.49136,1.5875 -0.42507,0 -0.50925,-0.2766 -0.62401,-2.05052 z m 1.90912,-0.17639 c 0,-1.53396 0.10292,-2.268433 0.33073,-2.360359 0.26459,-0.106761 0.26459,-0.137629 0,-0.15434 -0.46623,-0.02945 -0.41327,-1.255513 0.0621,-1.437936 0.40046,-0.153671 1.04742,0.682343 0.75463,0.975138 -0.0863,0.08626 -0.13566,1.292537 -0.10979,2.680627 0.0444,2.38316 0.0168,2.52378 -0.49532,2.52378 -0.50379,0 -0.54236,-0.15833 -0.54236,-2.22691 z m 14.56279,-0.0882 c 0.0234,-1.2733 -0.0452,-2.532693 -0.15254,-2.798638 -0.12118,-0.300324 -0.0475,-0.631172 0.19453,-0.873175 0.34313,-0.343129 0.42994,-0.341082 0.72724,0.01715 0.19015,0.229113 0.25526,0.610491 0.14908,0.873175 -0.10369,0.256515 -0.16937,1.508188 -0.14597,2.781498 0.0363,1.97543 -0.0203,2.3151 -0.38617,2.3151 -0.36582,0 -0.42248,-0.33967 -0.38617,-2.3151 z m 5.810128,0.0915 v -2.223558 l 1.28748,-0.01 c 1.11977,-0.0087 1.32655,0.0758 1.5875,0.648508 0.16501,0.36217 0.30002,1.36726 0.30002,2.23354 0,1.38583 -0.0621,1.57505 -0.51654,1.57505 -0.44883,0 -0.52687,-0.21676 -0.59531,-1.65365 -0.0599,-1.25851 -0.17361,-1.65364 -0.47565,-1.65364 -0.30204,0 -0.4157,0.39513 -0.47564,1.65364 -0.0685,1.43689 -0.14648,1.65365 -0.59532,1.65365 -0.47135,0 -0.51654,-0.19451 -0.51654,-2.22356 z m 10.054172,0.006 v -2.217766 l 1.11638,-0.01541 c 1.60407,-0.02214 1.79403,0.242476 1.79403,2.498966 0,1.5587 -0.08,1.95198 -0.39687,1.95198 -0.30187,0 -0.39785,-0.33253 -0.40093,-1.38906 -0.002,-0.76399 -0.10798,-1.55315 -0.235,-1.75369 -0.44573,-0.70373 -0.81928,0.0125 -0.81928,1.57086 0,1.3955 -0.0594,1.57189 -0.52917,1.57189 -0.48708,0 -0.52916,-0.17639 -0.52916,-2.21777 z M 89.11274,33.402573 c 0,-0.5626 0.891368,-1.706653 1.329708,-1.706653 0.65982,0 0.65411,0.107824 -0.0565,1.069047 -0.50303,0.680382 -1.273158,1.066068 -1.273158,0.637606 z M 53.570379,30.725781 c -0.09701,-0.09701 -0.176389,-1.466232 -0.176389,-3.042708 0,-2.68993 0.03256,-2.866319 0.529167,-2.866319 0.49849,0 0.529167,0.176389 0.529167,3.042708 0,2.359201 -0.07925,3.042708 -0.352778,3.042708 -0.194028,0 -0.432153,-0.07937 -0.529167,-0.176389 z m 1.940278,-2.103428 c 0,-2.149176 0.03031,-2.271891 0.528903,-2.141505 0.290897,0.07607 0.59558,0.03043 0.677073,-0.101433 0.227176,-0.367578 0.826993,-0.285644 1.288667,0.176029 0.587045,0.587045 0.603391,4.346726 0.0189,4.346726 -0.274383,0 -0.396875,-0.275607 -0.396875,-0.892968 0,-1.398775 -0.299139,-2.546615 -0.663673,-2.546615 -0.412452,0 -0.650898,0.84198 -0.655631,2.315104 -0.0026,0.821543 -0.110532,1.124479 -0.400488,1.124479 -0.322072,0 -0.396875,-0.429702 -0.396876,-2.279817 z m 4.034893,2.104589 C 59.2,30.587509 59.09344,29.78883 59.3819,29.500368 c 0.0919,-0.09189 0.38955,-0.04802 0.66146,0.0975 0.70531,0.377468 0.61092,-0.08148 -0.16708,-0.812368 -0.7539,-0.70825 -0.85448,-1.621261 -0.24568,-2.23006 0.53027,-0.530272 1.02231,-0.52739 1.55883,0.0091 0.51966,0.519653 0.0855,1.218637 -0.60489,0.973757 -0.2859,-0.101415 -0.18493,0.121028 0.28393,0.625517 1.40923,1.516322 0.49114,3.295077 -1.32292,2.563091 z m 2.84427,-1.525163 c 0,-0.983072 -0.11502,-1.739192 -0.26458,-1.739192 -0.14552,0 -0.26458,-0.231098 -0.26458,-0.513552 0,-0.282453 0.11906,-0.587136 0.26458,-0.677073 0.14552,-0.08994 0.26458,-0.454151 0.26458,-0.809365 0,-0.453757 0.14669,-0.645843 0.49321,-0.645843 0.6162,0 0.82054,1.416869 0.59109,4.098539 -0.12622,1.475163 -0.25199,1.867405 -0.62127,1.937629 -0.40295,0.07662 -0.46303,-0.137616 -0.46303,-1.651143 z m 1.85209,-0.529167 c 0,-1.984102 0.058,-2.268309 0.46302,-2.267965 0.40517,3.44e-4 0.46047,0.273085 0.44264,2.182812 -0.017,1.81965 -0.094,2.196639 -0.46302,2.267966 -0.38603,0.0746 -0.44264,-0.204556 -0.44264,-2.182813 z m 1.85208,0.529167 c 0,-0.983072 -0.11503,-1.739192 -0.26458,-1.739192 -0.14552,0 -0.26459,-0.231098 -0.26459,-0.513552 0,-0.282453 0.11907,-0.587136 0.26459,-0.677073 0.14552,-0.08994 0.26458,-0.454151 0.26458,-0.809365 0,-0.453757 0.14669,-0.645843 0.4932,-0.645843 0.61621,0 0.82055,1.416869 0.5911,4.098539 -0.12622,1.475163 -0.25199,1.867405 -0.62128,1.937629 -0.40294,0.07662 -0.46302,-0.137616 -0.46302,-1.651143 z m 2.26396,1.112353 c -0.26659,-0.380612 -0.41188,-1.173915 -0.41188,-2.248958 0,-1.484531 0.0562,-1.66092 0.52917,-1.66092 0.47108,0 0.52917,0.176389 0.52917,1.6069 0,1.387561 0.0632,1.594872 0.46302,1.518783 0.36524,-0.06951 0.47978,-0.408849 0.54237,-1.6069 0.068,-1.302312 0.15289,-1.518783 0.59531,-1.518783 0.44186,0 0.51596,0.187526 0.51596,1.305692 0,1.403455 -0.36963,2.662093 -0.87644,2.98435 -0.59985,0.381419 -1.47705,0.204664 -1.88668,-0.380164 z m 3.50544,-1.474952 c -0.17099,-2.95376 -0.009,-4.022426 0.60955,-4.022426 0.37941,0 0.50022,0.1917 0.50022,0.79375 0,0.436562 0.11906,0.79375 0.26458,0.79375 0.14552,0 0.26458,0.238125 0.26458,0.529166 0,0.291042 -0.11906,0.529167 -0.26458,0.529167 -0.14925,0 -0.26458,0.749653 -0.26458,1.719792 0,1.504046 -0.0621,1.719791 -0.49517,1.719791 -0.43129,0 -0.51058,-0.26614 -0.6146,-2.06299 z m 2.45189,1.365851 c -1.38943,-1.766368 0.0863,-4.705011 1.93882,-3.860927 0.74196,0.338062 1.34413,1.898761 1.10311,2.859056 -0.41647,1.659334 -2.09096,2.210835 -3.04193,1.001871 z m 1.96517,-1.154944 c 0.2743,-0.864238 -0.0994,-1.629516 -0.75033,-1.536778 -0.58526,0.08338 -0.88982,0.937779 -0.60181,1.688312 0.21591,0.562676 1.159,0.456985 1.35214,-0.151534 z m 4.10992,1.141818 c -1.18963,-1.512375 -0.24493,-4.271424 1.35311,-3.951816 0.71642,0.143283 0.75468,0.103337 0.75468,-0.787892 0,-0.751702 0.0923,-0.921054 0.46302,-0.849658 0.40892,0.07875 0.46302,0.44422 0.46302,3.127701 v 3.038531 l -1.24789,0.05357 c -1.06109,0.04555 -1.32844,-0.04882 -1.78594,-0.63044 z m 1.9755,-1.141818 c 0.27429,-0.864238 -0.0994,-1.629516 -0.75033,-1.536778 -0.58526,0.08338 -0.88982,0.937779 -0.60182,1.688312 0.21592,0.562676 1.15901,0.456985 1.35215,-0.151534 z m 2.45355,1.389062 c -1.47637,-1.68128 -0.40045,-4.671625 1.50846,-4.192521 0.6982,0.175237 1.46194,1.356504 1.46194,2.261153 0,0.47735 -0.16524,0.542306 -1.37961,0.542306 -1.28679,0 -1.34999,0.02963 -0.93932,0.440292 0.34529,0.345288 0.52156,0.372848 0.81691,0.127727 0.37376,-0.310188 1.23744,-0.1615 1.23744,0.213031 0,0.415681 -0.9995,1.071033 -1.63347,1.071033 -0.36617,0 -0.84873,-0.208359 -1.07235,-0.463021 z M 86.5992,27.72717 c -0.0899,-0.14552 -0.38759,-0.264583 -0.66146,-0.264583 -0.27386,0 -0.57152,0.119063 -0.66146,0.264583 -0.0957,0.154781 0.17885,0.264584 0.66146,0.264584 0.48261,0 0.75712,-0.109803 0.66146,-0.264584 z M 64.10594,25.598917 c -0.21752,-0.68534 0.19851,-1.180892 0.7982,-0.95077 0.55704,0.213758 0.42067,1.323945 -0.17661,1.437722 -0.26421,0.05033 -0.5129,-0.144489 -0.62159,-0.486952 z"
       id="path1750" /></g></svg>
